<?xml version="1.0" encoding="UTF-8" standalone="no"?>
<svg
   width="100"
   height="100"
   version="1.1"
   id="svg1"
   sodipodi:docname="krul-small.svg"
   inkscape:version="1.4 (86a8ad7, 2024-10-11)"
   xmlns:inkscape="http://www.inkscape.org/namespaces/inkscape"
   xmlns:sodipodi="http://sodipodi.sourceforge.net/DTD/sodipodi-0.dtd"
   xmlns="http://www.w3.org/2000/svg"
   xmlns:svg="http://www.w3.org/2000/svg">
  <defs
     id="defs1" />
  <sodipodi:namedview
     id="namedview1"
     pagecolor="#ffffff"
     bordercolor="#000000"
     borderopacity="0.25"
     inkscape:showpageshadow="2"
     inkscape:pageopacity="0.0"
     inkscape:pagecheckerboard="0"
     inkscape:deskcolor="#d1d1d1"
     inkscape:zoom="0.18893009"
     inkscape:cx="1937.2245"
     inkscape:cy="1045.3602"
     inkscape:window-width="1760"
     inkscape:window-height="1057"
     inkscape:window-x="-8"
     inkscape:window-y="-8"
     inkscape:window-maximized="1"
     inkscape:current-layer="svg1" />
  <path
     id="path1"
     d="M 82.511719,1.9335938 C 69.299632,3.6333531 57.63606,11.229724 47.615932,19.614278 39.484795,26.893322 30.365648,35.174985 28.94089,46.625953 27.448502,50.972372 32.887552,55.449962 32.863742,57.741694 23.617369,63.509122 14.317617,69.312498 4.8227441,74.58659 -0.01458618,77.86087 2.3885033,86.935284 8.7813985,85.588286 16.056748,82.6803 22.578901,78.095975 29.370663,74.206176 35.969739,70.174028 42.51942,66.003452 48.916005,61.697411 c 3.992329,-1.872965 8.244337,0.343441 12.346984,0.577672 6.073993,0.527165 -2.383774,4.894699 -3.441415,7.221279 -4.59794,4.746267 -10.91547,9.793669 -10.18709,17.166929 0.724319,7.310973 8.507845,11.480793 15.285743,11.160637 6.010207,0.01998 12.111618,-0.829213 17.824972,-2.690241 7.283257,-1.940128 3.749611,-14.059865 -3.40722,-11.269148 -5.264238,0.50364 -13.202908,3.410768 -17.037547,0.838724 4.941899,-6.893064 13.329765,-11.29979 16.075144,-19.677867 1.85378,-5.371053 -1.950659,-10.84072 -6.93673,-12.707725 -2.506869,-1.04612 -5.639121,-1.465255 -1.59611,-3.251361 C 77.414031,42.051771 87.288255,34.90278 94.360303,25.231329 98.809741,19.504736 98.928681,10.425089 93.208017,5.5002667 90.298416,2.9509187 86.33972,1.7937466 82.511719,1.9335938 Z m 0.904297,12.3867182 c 5.270607,1.559389 -2.057033,7.95685 -4.037508,10.164461 -9.1383,9.295461 -20.509427,15.846225 -30.984008,23.442599 -3.265187,2.21973 -10.342806,-0.01336 -6.025681,-4.46397 C 50.62391,30.897655 63.21183,21.504589 76.886521,15.53455 c 2.079373,-0.780516 4.292285,-1.336563 6.529495,-1.214238 z" />
</svg>
