<?xml version="1.0" encoding="UTF-8" standalone="no"?>
<!-- Created with Inkscape (http://www.inkscape.org/) -->

<svg
   xmlns:dc="http://purl.org/dc/elements/1.1/"
   xmlns:cc="http://creativecommons.org/ns#"
   xmlns:rdf="http://www.w3.org/1999/02/22-rdf-syntax-ns#"
   xmlns:svg="http://www.w3.org/2000/svg"
   xmlns="http://www.w3.org/2000/svg"
   xmlns:sodipodi="http://sodipodi.sourceforge.net/DTD/sodipodi-0.dtd"
   xmlns:inkscape="http://www.inkscape.org/namespaces/inkscape"
   width="240px"
   height="220px"
   viewBox="0 0 240 220"
   version="1.1"
   id="svg8"
   inkscape:version="0.92.1 r15371"
   sodipodi:docname="krul.svg">
  <defs
     id="defs2" />
  <sodipodi:namedview
     id="base"
     pagecolor="#ffffff"
     bordercolor="#666666"
     borderopacity="1.0"
     inkscape:pageopacity="0.0"
     inkscape:pageshadow="2"
     inkscape:zoom="2.8"
     inkscape:cx="111.13171"
     inkscape:cy="125.19327"
     inkscape:document-units="mm"
     inkscape:current-layer="layer1"
     showgrid="false"
     inkscape:window-width="1920"
     inkscape:window-height="1018"
     inkscape:window-x="-8"
     inkscape:window-y="-8"
     inkscape:window-maximized="1" />
  <metadata
     id="metadata5">
    <rdf:RDF>
      <cc:Work
         rdf:about="">
        <dc:format>image/svg+xml</dc:format>
        <dc:type
           rdf:resource="http://purl.org/dc/dcmitype/StillImage" />
        <dc:title />
      </cc:Work>
    </rdf:RDF>
  </metadata>
  <g
     inkscape:label="Layer 1"
     inkscape:groupmode="layer"
     id="layer1">
    <path
       style="color:#000000;font-style:normal;font-variant:normal;font-weight:normal;font-stretch:normal;font-size:medium;line-height:normal;font-family:sans-serif;font-variant-ligatures:normal;font-variant-position:normal;font-variant-caps:normal;font-variant-numeric:normal;font-variant-alternates:normal;font-feature-settings:normal;text-indent:0;text-align:start;text-decoration:none;text-decoration-line:none;text-decoration-style:solid;text-decoration-color:#000000;letter-spacing:normal;word-spacing:normal;text-transform:none;writing-mode:lr-tb;direction:ltr;text-orientation:mixed;dominant-baseline:auto;baseline-shift:baseline;text-anchor:start;white-space:normal;shape-padding:0;clip-rule:nonzero;display:inline;overflow:visible;visibility:visible;opacity:1;isolation:auto;mix-blend-mode:normal;color-interpolation:sRGB;color-interpolation-filters:linearRGB;solid-color:#000000;solid-opacity:1;vector-effect:none;fill:#000000;fill-opacity:1;fill-rule:nonzero;stroke:none;stroke-width:3.0090723;stroke-linecap:round;stroke-linejoin:miter;stroke-miterlimit:4;stroke-dasharray:none;stroke-dashoffset:0;stroke-opacity:1;color-rendering:auto;image-rendering:auto;shape-rendering:auto;text-rendering:auto;enable-background:accumulate"
       d="M 101.87425,1.846639 C 97.030652,1.3739713 92.043002,2.4687493 87.835874,5.5857635 66.511628,21.384415 51.873948,41.724662 43.388384,57.696605 c -3.05669,5.753461 -4.868044,13.813417 -3.117192,21.420397 1.628481,7.075238 6.741611,13.535433 16.318896,16.8816 C 38.306227,114.15557 19.333966,132.14506 0.48836125,150.27889 -0.95792672,151.6709 1.1300565,153.84031 2.5763446,152.4483 21.736524,134.01177 41.085454,115.70215 59.699846,97.183295 c 10.915684,3.049105 22.190407,6.696795 29.031946,12.394625 3.53503,2.94409 5.885651,6.34019 6.656353,10.52877 0.770741,4.18863 -0.03401,9.2894 -3.250443,15.63772 l -28.624683,56.48675 c -4.640436,9.15764 -4.648698,17.59763 -0.340422,22.59027 2.154059,2.49627 5.366362,3.98978 9.218241,4.16115 3.851875,0.17121 8.353259,-0.91533 13.401601,-3.45037 C 147.70753,184.44156 193.49641,129.52596 240,78.909657 199.15199,120.12854 142.99249,184.59236 84.444905,212.83707 c -4.712955,2.36663 -8.745434,3.28063 -11.920815,3.13939 -3.175344,-0.14136 -5.481382,-1.27499 -7.071006,-3.11717 -3.179248,-3.6844 -3.555541,-10.78068 0.747841,-19.27317 l 28.617252,-56.48675 c 3.420087,-6.74936 4.449483,-12.54614 3.531806,-17.53319 -0.917639,-4.98701 -3.777611,-9.04493 -7.692949,-12.30576 C 83.455201,101.2625 72.642177,97.769727 62.150817,94.799132 81.352279,75.603477 99.664348,56.156334 115.92759,36.046677 c 4.50643,-5.572233 6.18127,-11.144088 5.72348,-16.126375 -0.4578,-4.982286 -3.01867,-9.287698 -6.62679,-12.4242897 C 111.4162,4.3594957 106.71803,2.3192311 101.8744,1.846639 Z m -0.20739,3.0283087 c 4.18874,0.4215686 8.26384,2.1850205 11.3803,4.8941856 3.11644,2.7091647 5.23358,6.3021357 5.6124,10.4251087 0.37872,4.122973 -0.94686,8.856341 -5.07189,13.956964 C 97.13595,54.493871 78.512607,74.196587 58.981596,93.681072 49.214688,90.798993 44.712738,85.001689 43.203217,78.443226 41.663026,71.751534 43.312785,64.256354 46.046435,59.110828 54.355454,43.471181 68.768142,23.453858 89.627619,7.9995588 93.180466,5.3673068 97.478159,4.4533793 101.66686,4.8749477 Z"
       id="path4500"
       inkscape:connector-curvature="0"
       sodipodi:nodetypes="cccccccccccccscccccccccccsscccccsccccc" />
  </g>
</svg>
