<svg width="100" height="100" xmlns="http://www.w3.org/2000/svg"><path d="M60.486 93.622c-4.24-.685-6.738-2.164-8.063-4.823-1.443-2.896-1.067-5.692 1.212-9.006.607-.883 3.942-4.426 7.411-7.873 7-6.953 8.313-8.812 7.405-10.471-.983-1.795-4.988-3.138-11.825-3.935-3.955-.461-5.122-.643-7.058-.754-1.896 1.188-3.399 2.085-7.58 4.789-7.238 4.68-13.004 8.315-25.616 15.743-8.122 4.783-9.09 5.127-10.096 3.591-.976-1.49-.282-2.217 5.19-5.432C28.784 65.276 39.67 58.14 42.557 56.276c-.921-.08-1.716-.076-2.787-.399-8.788-2.65-9.136-11.389-.868-21.764C49.68 20.587 68.095 8.297 80.774 6.167c2.932-.493 5.732-.125 8.046 1.055 3.363 1.716 5.574 6.559 4.707 10.31-1.829 7.913-12.855 17.674-32.57 31.521-3.034 2.132-5.574 3.696-6.28 4.219.52.025 2.002.079 3.725.305 10.087 1.324 14.939 4.444 14.37 9.242-.371 3.142-2.147 5.525-9.513 12.765-5.505 5.41-7.183 7.46-7.53 9.191-.31 1.557.454 2.996 2.044 3.847 1.266.677 4.4 1.007 6.639 1.04 3.35.049 6.088-.495 9.973-1.266 2.595-.515 5.078-.846 5.517-.735.444.111.95.601 1.142 1.104.552 1.452-.517 2.404-2.94 3.033-7.888 2.048-14.309 2.358-17.618 1.824zM55.39 47.884c12.877-8.53 20.74-14.528 26.582-20.274 6.77-6.66 8.805-11.13 6.74-14.805-1.06-1.883-2.525-2.54-5.671-2.54-3.477-.001-6.721.953-12.128 3.564-8.402 4.06-17.18 10.498-24.291 17.819-7.843 8.074-11.266 15.027-8.979 18.239 1.118 1.57 5.763 2.906 9.813 3.077 4.885-2.964 1.891-1.077 7.934-5.08z"/></svg>