<svg width="25" height="25" xmlns="http://www.w3.org/2000/svg"><path d="M9.7,-0.6C8.1,-0.5 7,.8 6,1.8 4.8,3.2 3.6,4.6 3.2,6.3 2.7,7.6 3.7,8.9 4.1,9.7 2.5,11.2.9,12.7-0.7,14.3c-0.6,1.3 1.3,1.9 1.9,.7 1.6,-1.6 3.2,-3.1 4.8,-4.7 1.3,.2 3.4,1.3 2.1,2.8-1,2-2.1,3.9-2.9,5.9-0.7,1.6.8,3.5 2.5,3 1.8,-0.6 3.4,-1.7 5,-2.8C21.8,12.6 25.2,5.9 24,6.7 19.5,11.8 14.3,16.5 8.3,19.8c-1,.9-1.9,.2-1,-0.9 1,-2 2.1,-3.9 2.9,-5.9.5,-1.4-0.2,-2.9-1.5,-3.6-0.7,-0.4-1.7,-0.5-0.6,-1.2 1.5,-1.6 3,-3.1 4.2,-4.9.9,-1.4-0.1,-3.4-1.6,-3.9-0.3,-0.1-0.7,-0.2-1,-0.2zm.1,1.9c1.5,.1.9,1.7.1,2.3C8.5,5.2 7.1,6.7 5.5,8.2 4.2,7.3 5.4,5.7 6,4.7 7,3.4 8.1,2.1 9.5,1.3l.2,-0z"/></svg>